<?xml version="1.0" ?><svg enable-background="new 0 0 64 64" id="Layer_1_1_" version="1.1" viewBox="0 0 64 64" xml:space="preserve" xmlns="http://www.w3.org/2000/svg" xmlns:xlink="http://www.w3.org/1999/xlink"><g><g><path d="M49,62h-2c0-2.8,2.1-4.7,3-5.5V8.6c-1.2-0.8-4-2.9-4-6.6h2c0,3.3,3.4,5.1,3.5,5.1L52,7.4L52,8v49.5    l-0.4,0.3C51.5,57.8,49,59.6,49,62z" fill="#343433"/></g><g><path d="M17,62h-2c0-2.4-2.5-4.2-2.6-4.2L12,57.5l0-0.5V7.4l0.6-0.3c0,0,3.4-1.8,3.4-5.1h2c0,3.6-2.8,5.8-4,6.6    v47.9C14.9,57.3,17,59.2,17,62z" fill="#343433"/></g><g><rect fill="#343433" height="49" width="2" x="12" y="8"/></g><g><rect fill="#343433" height="2" width="34" x="15" y="1"/></g><g><rect fill="#343433" height="2" width="38" x="13" y="56"/></g><g><path d="M38.5,57.9C38.3,57.7,33,54.5,33,47c0-7.7,3.3-12.3,6.2-16.4C41.8,27,44,23.8,44,19    c0-8.1-3.4-10.1-3.5-10.1l0.9-1.8C41.6,7.2,46,9.5,46,19c0,5.5-2.5,9-5.2,12.8C38,35.8,35,39.9,35,47c0,6.4,4.5,9.1,4.5,9.1    L38.5,57.9z" fill="#343433"/></g><g><rect fill="#343433" height="2" width="38" x="13" y="7"/></g><g><rect fill="#343433" height="2" width="36" x="14" y="61"/></g><g><rect fill="#343433" height="2" width="10" x="17" y="17"/></g><g><rect fill="#343433" height="2" width="8" x="17" y="22"/></g><g><path d="M24,52c-2.2,0-4-1.8-4-4s1.8-4,4-4s4,1.8,4,4S26.2,52,24,52z M24,46c-1.1,0-2,0.9-2,2s0.9,2,2,2s2-0.9,2-2    S25.1,46,24,46z" fill="#343433"/></g><g><path d="M24,42c-3.9,0-7-3.1-7-7c0-3.9,3.1-7,7-7s7,3.1,7,7C31,38.9,27.9,42,24,42z M24,30c-2.8,0-5,2.2-5,5    s2.2,5,5,5s5-2.2,5-5S26.8,30,24,30z" fill="#343433"/></g><g><rect fill="#343433" height="2" width="2" x="29" y="17"/></g><g><rect fill="#343433" height="2" width="2" x="33" y="17"/></g></g></svg>