<?xml version="1.0" encoding="iso-8859-1"?>
<!-- Generator: Adobe Illustrator 19.1.0, SVG Export Plug-In . SVG Version: 6.00 Build 0)  -->
<svg version="1.1" id="Capa_1" xmlns="http://www.w3.org/2000/svg" xmlns:xlink="http://www.w3.org/1999/xlink" x="0px" y="0px"
	 viewBox="0 0 65.836 65.836" style="enable-background:new 0 0 65.836 65.836;" xml:space="preserve">
<g>
	<path d="M51.048,0.138c-0.153-0.121-0.352-0.166-0.542-0.12l-9.004,2.158c-0.007,0.002-0.013,0.006-0.02,0.008
		c-0.004,0.001-0.008,0-0.012,0.001c-4.488,1.327-5.317,5.011-5.42,5.59l-2.662,7.215c-0.119-0.044-0.243-0.076-0.376-0.083
		c-1.106-0.054-1.758-0.054-2.234-0.054c-0.143,0-14.267,0.044-14.267,3.852c0,0.195,0.045,0.377,0.115,0.552
		c-0.02,0.09-0.033,0.183-0.033,0.279c0,1.647-0.513,2.446-1.163,3.458c-0.795,1.238-1.784,2.779-1.784,5.872v30.525
		c0,3.208,4.994,6.445,16.151,6.445c10.111,0,15.567-3.321,15.567-6.445V28.866c0-2.357-0.675-3.916-1.27-5.292
		c-0.547-1.263-1.019-2.355-1.019-4.037c0-0.135-0.027-0.262-0.066-0.383c0.038-0.144,0.065-0.292,0.065-0.448
		c0-2.572-3.438-3.11-5.274-3.353l2.089-6.386c0-0.001,0.001-0.002,0.001-0.002c0.777-2.377,3.079-3.39,3.402-3.523
		c0.587-0.119,6.601-1.335,7.945-1.652c0.109-0.026,0.209-0.08,0.29-0.157c0.577-0.546,0.677-1.123,0.661-1.512
		C52.141,1.036,51.16,0.226,51.048,0.138z M32.183,18.283c-0.01,0.038-0.016,0.076-0.019,0.114
		c-0.622,0.018-1.189,0.021-1.647,0.003C30.978,18.325,31.567,18.283,32.183,18.283z M16.182,59.391V28.866
		c0-2.349,0.641-3.346,1.383-4.502c0.564-0.879,1.183-1.855,1.44-3.344c2.257,0.84,5.603,1.222,8.155,1.394
		c-1.753,1.621-3.908,4.357-3.86,8.005c0.057,4.406,3.626,7.481,7.077,10.455c3.273,2.821,6.365,5.485,5.881,8.897
		c-0.394,2.776-3.85,5.768-9.994,8.65c-2.975,1.395-5.927,2.451-7.733,3.05C16.937,60.746,16.182,59.954,16.182,59.391z
		 M38.312,53.737L28.21,63.274c-0.568-0.018-1.108-0.048-1.632-0.085l12.254-11.613C38.707,52.326,38.542,53.054,38.312,53.737z
		 M23.357,62.825l3.418-3.239c1.349-0.634,2.71-1.34,3.991-2.111l-5.868,5.56C24.36,62.972,23.841,62.904,23.357,62.825z
		 M37.73,44.138l-1.294,1.227c-0.205-0.334-0.43-0.663-0.678-0.985l1.448-1.274C37.391,43.448,37.566,43.792,37.73,44.138z
		 M38.662,46.618c-0.047,0.026-0.095,0.047-0.136,0.085l-1.094,1.038c-0.089-0.412-0.224-0.812-0.389-1.204l1.217-1.153
		C38.414,45.791,38.55,46.202,38.662,46.618z M37.511,49.949c0.028-0.198,0.038-0.39,0.048-0.583l1.384-1.312
		c0.044,0.345,0.088,0.689,0.094,1.039c0.004,0.205-0.02,0.398-0.025,0.6c-0.034,0.022-0.073,0.035-0.103,0.065l-1.875,1.776
		C37.271,51.017,37.435,50.489,37.511,49.949z M34.944,43.408c-0.382-0.422-0.789-0.836-1.215-1.242l1.856-1.759
		c0.339,0.52,0.667,1.044,0.983,1.572L34.944,43.408z M32.798,41.302c-0.001,0.001-0.001,0.003-0.003,0.004
		c-0.479-0.429-0.967-0.853-1.456-1.274c0.026-0.018,0.055-0.028,0.079-0.05l2.383-2.259c0.237,0.359,0.478,0.719,0.723,1.083
		c0.118,0.175,0.235,0.352,0.352,0.528L32.798,41.302z M31.799,34.312l-3.252,3.227c-0.294-0.282-0.583-0.566-0.858-0.856
		l3.651-3.46C31.47,33.583,31.624,33.946,31.799,34.312z M32.414,35.487c0.217,0.38,0.444,0.763,0.688,1.15l-2.556,2.423
		c-0.054,0.052-0.092,0.113-0.124,0.176c-0.318-0.276-0.634-0.554-0.945-0.834L32.414,35.487z M30.964,31.832l-4.118,3.903
		c-0.248-0.299-0.482-0.602-0.699-0.911l4.786-4.536c-0.045,0.274-0.073,0.548-0.06,0.82C30.885,31.348,30.923,31.59,30.964,31.832z
		 M32.739,26.845c-0.014,0.011-0.031,0.015-0.044,0.027l-7.23,6.852c-0.204-0.384-0.376-0.777-0.515-1.181l10.874-10.305
		c1.058-0.128,2.159-0.307,3.175-0.561C37.063,22.912,34.472,24.779,32.739,26.845z M24.615,31.115
		c-0.028-0.234-0.045-0.471-0.048-0.712c-0.004-0.331,0.02-0.651,0.057-0.967l7.285-6.902c0.505-0.017,1.142-0.047,1.865-0.099
		L24.615,31.115z M25.276,27.072c0.956-2.145,2.66-3.719,3.737-4.558c0.408,0.016,0.759,0.026,1.039,0.033L25.276,27.072z
		 M23.378,61.058l-1.354,1.284c-0.061,0.058-0.106,0.125-0.139,0.197c-0.52-0.116-1.013-0.238-1.458-0.371
		C21.303,61.859,22.307,61.487,23.378,61.058z M30.032,63.298l6.777-6.398c-2.494,4.07-6.201,6.33-6.307,6.393
		C30.347,63.296,30.189,63.297,30.032,63.298z M41.767,24.581c0.546,1.262,1.062,2.453,1.062,4.285v30.525
		c0,0.705-2.67,3.224-9.963,3.794c2.695-2.104,7.563-6.909,7.439-14.114c-0.07-4.034-2.545-7.721-4.728-10.972
		c-1.719-2.56-3.342-4.978-3.437-7.048c-0.143-3.105,5.384-7.053,8.706-9.025C41.089,22.998,41.439,23.821,41.767,24.581z
		 M40.323,18.567c-1.221,0.651-5.078,1.455-9.545,1.455c-4.315,0-8.724-0.678-10.789-1.317c1.841-0.569,5.546-1.169,9.387-1.292
		c-0.503,0.212-0.883,0.528-1.006,0.994c-0.068,0.258-0.007,0.524,0.167,0.729c0.137,0.162,0.473,0.557,2.89,0.557
		c0.994,0,2.34-0.067,4.168-0.244c0.315-0.024,0.516-0.058,0.529-0.06c0.232-0.04,0.423-0.204,0.497-0.428l0.388-1.186
		c0.085,0.031,0.174,0.054,0.267,0.066C39.183,18.089,39.992,18.394,40.323,18.567z M35.541,18.181
		c-0.419,0.035-1.154,0.069-1.935-0.123l3.407-9.232c0.365,0.135,0.863,0.254,1.501,0.268L35.541,18.181z M37.39,7.613
		c0.037-0.13,0.088-0.284,0.155-0.458c0.33,0.308,0.717,0.522,1.076,0.673C38.045,7.825,37.642,7.715,37.39,7.613z M39.58,6.82
		c-0.432-0.118-1.054-0.369-1.358-0.801c-0.014-0.02-0.035-0.03-0.051-0.048c0.076-0.113,0.159-0.226,0.248-0.341
		c0.249,0.394,0.641,0.818,1.244,1.074C39.635,6.742,39.608,6.781,39.58,6.82z M40.617,5.665c-0.015-0.003-0.026-0.012-0.042-0.014
		c-0.749-0.101-1.088-0.642-1.227-0.966c0.092-0.075,0.189-0.148,0.289-0.22c0.291,0.486,0.729,0.872,1.066,1.123
		C40.675,5.613,40.646,5.64,40.617,5.665z M41.785,4.794c-0.281-0.165-0.816-0.574-1.056-0.97c0.213-0.1,0.441-0.193,0.681-0.279
		l0.745,1.037C42.04,4.644,41.918,4.713,41.785,4.794z M50.763,2.597c-1.427,0.323-5.99,1.25-7.374,1.53l-0.674-0.938l7.754-1.858
		c0.195,0.21,0.439,0.538,0.453,0.845C50.926,2.273,50.911,2.416,50.763,2.597z"/>
	<path d="M23.878,52.747c-1.374,0-2.492,1.074-2.492,2.394c0,1.32,1.118,2.395,2.492,2.395c1.374,0,2.492-1.075,2.492-2.395
		C26.369,53.821,25.252,52.747,23.878,52.747z M23.878,56.268c-0.675,0-1.224-0.506-1.224-1.127c0-0.621,0.549-1.126,1.224-1.126
		c0.675,0,1.224,0.505,1.224,1.126C25.102,55.763,24.553,56.268,23.878,56.268z"/>
	<path d="M28.415,53.093c1.374,0,2.492-1.075,2.492-2.395c0-1.32-1.118-2.394-2.492-2.394c-1.374,0-2.492,1.074-2.492,2.394
		C25.923,52.018,27.041,53.093,28.415,53.093z M28.415,49.572c0.675,0,1.224,0.505,1.224,1.126c0,0.622-0.549,1.127-1.224,1.127
		c-0.675,0-1.224-0.506-1.224-1.127C27.191,50.077,27.74,49.572,28.415,49.572z"/>
	<path d="M25.242,49.68c0-1.32-1.118-2.394-2.492-2.394c-1.374,0-2.492,1.074-2.492,2.394c0,1.32,1.118,2.395,2.492,2.395
		C24.124,52.075,25.242,51,25.242,49.68z M21.526,49.68c0-0.621,0.549-1.126,1.224-1.126c0.675,0,1.224,0.505,1.224,1.126
		c0,0.622-0.549,1.127-1.224,1.127C22.075,50.807,21.526,50.301,21.526,49.68z"/>
</g>
<g>
</g>
<g>
</g>
<g>
</g>
<g>
</g>
<g>
</g>
<g>
</g>
<g>
</g>
<g>
</g>
<g>
</g>
<g>
</g>
<g>
</g>
<g>
</g>
<g>
</g>
<g>
</g>
<g>
</g>
</svg>
