<?xml version="1.0" ?><svg id="Слой_1" style="enable-background:new 0 0 181.4 181.4;" version="1.1" viewBox="0 0 181.4 181.4" xml:space="preserve" xmlns="http://www.w3.org/2000/svg" xmlns:xlink="http://www.w3.org/1999/xlink"><style type="text/css">
	.st0{fill-rule:evenodd;clip-rule:evenodd;fill:#FFFFFF;}
	.st1{fill-rule:evenodd;clip-rule:evenodd;fill:#3FC0F0;}
	.st2{fill-rule:evenodd;clip-rule:evenodd;fill:#3864AD;}
	.st3{fill:#3864AD;}
	.st4{fill-rule:evenodd;clip-rule:evenodd;fill:#FFCC07;}
	.st5{fill:none;stroke:#3864AD;stroke-width:5.6693;stroke-linecap:round;stroke-linejoin:round;stroke-miterlimit:22.9256;}
</style><g><path class="st0" d="M90.7,11.3c43.8,0,79.4,35.5,79.4,79.4c0,43.8-35.5,79.4-79.4,79.4c-43.8,0-79.4-35.5-79.4-79.4   C11.3,46.9,46.9,11.3,90.7,11.3"/><path class="st1" d="M73.7,130.4c11.5,0,17-14.2,17-14.2s5.5,14.2,17,14.2H73.7z M59.5,96.4c0-1.6,1.3-2.8,2.8-2.8   c1.6,0,2.8,1.3,2.8,2.8v2.8c0,1.6-1.3,2.8-2.8,2.8c-1.6,0-2.8-1.3-2.8-2.8V96.4z M116.2,79.4c0-1.6,1.3-2.8,2.8-2.8   s2.8,1.3,2.8,2.8v2.8c0,1.6-1.3,2.8-2.8,2.8s-2.8-1.3-2.8-2.8V79.4z M82.2,59.5V51c0-1.6,1.3-2.8,2.8-2.8s2.8,1.3,2.8,2.8v8.5h5.7   v14.2h-17V59.5H82.2z M90.7,136.1c25,0,45.4-20.3,45.4-45.4c0-25-20.3-45.4-45.4-45.4c-25,0-45.4,20.3-45.4,45.4   C45.4,115.8,65.7,136.1,90.7,136.1z"/><path class="st4" d="M73.7,63.1c0,15.2,7.7,27.6,17,27.6c9.4,0,17-12.4,17-27.6v-3.5H87.9V68c0,1.6-1.3,2.8-2.8,2.8   s-2.8-1.3-2.8-2.8v-8.5h-8.5V63.1z"/><path class="st2" d="M150.8,30.6C135.5,15.2,114.2,5.7,90.7,5.7c-23.5,0-44.7,9.5-60.1,24.9C15.2,46,5.7,67.2,5.7,90.7   c0,23.5,9.5,44.7,24.9,60.1c15.4,15.4,36.6,24.9,60.1,24.9c23.5,0,44.7-9.5,60.1-24.9c15.4-15.4,24.9-36.6,24.9-60.1   C175.7,67.2,166.2,46,150.8,30.6 M36.9,79.4c0-1.6,1.3-2.8,2.8-2.8c1.6,0,2.8,1.3,2.8,2.8v2.8c0,1.6-1.3,2.8-2.8,2.8   c-1.6,0-2.8-1.3-2.8-2.8V79.4z M51.3,38.4c0.7-1.4,2.4-2,3.8-1.3c1.4,0.7,2,2.4,1.3,3.8c-1.7,3.3-2.2,5.7-2.1,7.5   c0.1,1.5,0.7,2.8,1.5,3.9c1.2,1.8,2.2,3.8,2.4,6.7c0.1,2.7-0.5,5.9-2.7,10.3c-0.7,1.4-2.4,2-3.8,1.3c-1.4-0.7-2-2.4-1.3-3.8   c1.7-3.3,2.2-5.7,2.1-7.5c-0.1-1.5-0.7-2.8-1.5-3.9c-1.2-1.8-2.2-3.8-2.4-6.7C48.5,46,49.2,42.8,51.3,38.4z M144.9,78.1   c0.7-1.4,2.4-2,3.8-1.3c1.4,0.7,2,2.4,1.3,3.8c-1.7,3.3-2.2,5.7-2.1,7.5c0.1,1.5,0.7,2.8,1.5,3.9c1.2,1.8,2.2,3.8,2.4,6.7   c0.1,2.7-0.5,5.9-2.7,10.3c-0.7,1.4-2.4,2-3.8,1.3c-1.4-0.7-2-2.4-1.3-3.8c1.7-3.3,2.2-5.7,2.1-7.5c-0.1-1.5-0.7-2.8-1.5-3.9   c-1.2-1.8-2.2-3.8-2.4-6.7C142,85.7,142.7,82.5,144.9,78.1z M141.7,53.9c0-1.6,1.3-2.8,2.8-2.8c1.6,0,2.8,1.3,2.8,2.8v2.8   c0,1.6-1.3,2.8-2.8,2.8c-1.6,0-2.8-1.3-2.8-2.8V53.9z M127.9,27.1c0.7-1.4,2.4-2,3.8-1.3c1.4,0.7,2,2.4,1.3,3.8   c-1.7,3.3-2.2,5.7-2.1,7.5c0.1,1.5,0.7,2.8,1.5,3.9c1.2,1.8,2.2,3.8,2.4,6.7c0.1,2.7-0.5,5.9-2.7,10.3c-0.7,1.4-2.4,2-3.8,1.3   c-1.4-0.7-2-2.4-1.3-3.8c1.7-3.3,2.2-5.7,2.1-7.5c-0.1-1.5-0.7-2.8-1.5-3.9c-1.2-1.8-2.2-3.8-2.4-6.7   C125,34.7,125.7,31.4,127.9,27.1z M90.7,0c50.1,0,90.7,40.6,90.7,90.7s-40.6,90.7-90.7,90.7S0,140.8,0,90.7S40.6,0,90.7,0z"/><path class="st3" d="M90.7,122.3c-1.1,1.7-2.5,3.6-4.2,5.3h8.4C93.2,125.8,91.8,123.9,90.7,122.3 M104.9,36.9H76.5v26.2   c0,7.1,1.8,13.4,4.6,18c2.6,4.2,6,6.8,9.6,6.8c3.6,0,7-2.6,9.6-6.8c2.8-4.6,4.6-11,4.6-18V36.9z M73.7,31.2h34   c1.6,0,2.8,1.3,2.8,2.8v29.1c0,8.1-2.1,15.6-5.4,21c-3,4.9-7,8.2-11.6,9.2v22.4c1,2.3,5.7,11.9,14.2,11.9h28.3   c1.6,0,2.8,1.3,2.8,2.8c0,1.6-1.3,2.8-2.8,2.8h-28.3h-34H45.4c-1.6,0-2.8-1.3-2.8-2.8c0-1.6,1.3-2.8,2.8-2.8h28.3   c8.4,0,13.2-9.6,14.2-11.9V93.2c-4.6-1-8.6-4.3-11.6-9.2c-3.3-5.4-5.4-12.9-5.4-21V34C70.9,32.5,72.1,31.2,73.7,31.2z M73.7,144.6   c-1.6,0-2.8-1.3-2.8-2.8s1.3-2.8,2.8-2.8h34c1.6,0,2.8,1.3,2.8,2.8s-1.3,2.8-2.8,2.8H73.7z"/></g></svg>